<?xml version="1.0" standalone="no"?>
<!DOCTYPE svg PUBLIC "-//W3C//DTD SVG 20010904//EN"
 "http://www.w3.org/TR/2001/REC-SVG-20010904/DTD/svg10.dtd">
<svg version="1.0" xmlns="http://www.w3.org/2000/svg"
 width="144.000000pt" height="144.000000pt" viewBox="0 0 144.000000 144.000000"
 preserveAspectRatio="xMidYMid meet">
<metadata>
Created by potrace 1.14, written by Peter Selinger 2001-2017
</metadata>
<g transform="translate(0.000000,144.000000) scale(0.100000,-0.100000)"
fill="#000000" stroke="none">
<path d="M492 1313 c-5 -16 -19 -51 -30 -79 l-21 -51 69 0 69 0 -21 51 c-11
28 -26 63 -32 79 -5 15 -13 27 -17 27 -4 0 -11 -12 -17 -27z"/>
<path d="M204 1212 c4 -7 9 -20 11 -29 2 -10 15 -45 30 -77 l26 -59 22 31 c12
17 32 36 44 43 12 6 25 19 28 28 3 8 3 12 -1 8 -4 -4 -12 -3 -18 2 -6 5 -33
18 -61 29 -27 11 -59 23 -69 27 -14 6 -17 5 -12 -3z"/>
<path d="M792 1208 c-7 -7 -12 -9 -12 -5 0 4 -10 2 -22 -5 -13 -7 -25 -13 -28
-13 -3 -1 -21 -9 -41 -19 l-36 -18 46 -45 c42 -41 46 -43 59 -26 7 10 15 28
19 41 3 12 10 22 16 22 6 0 7 3 4 7 -4 3 -2 12 4 20 6 7 8 13 4 13 -4 0 -2 6
4 14 15 17 -1 30 -17 14z"/>
<path d="M415 1152 c-22 -9 -41 -19 -43 -24 -2 -4 -8 -8 -13 -8 -19 0 -79 -78
-95 -124 -19 -55 -20 -106 -4 -166 7 -28 8 -46 1 -54 -5 -6 -12 -23 -15 -36
-9 -52 -22 -67 -63 -76 -17 -3 -74 -43 -98 -68 -68 -71 -97 -190 -70 -291 17
-68 98 -175 131 -175 8 0 14 -4 14 -9 0 -11 97 -41 130 -41 14 0 147 -2 295
-4 369 -7 534 -7 575 0 55 8 135 51 181 97 61 61 93 135 92 217 -1 77 -2 81
-31 141 -38 78 -110 141 -194 168 -32 11 -38 17 -38 40 0 46 -57 147 -108 192
-83 73 -138 93 -254 92 -45 0 -68 4 -68 11 0 21 -84 95 -130 115 -55 23 -140
25 -195 3z"/>
<path d="M180 957 c-25 -11 -47 -21 -50 -22 -56 -15 -63 -28 -22 -43 15 -6 50
-20 78 -31 l51 -20 -2 64 c0 36 -3 66 -6 68 -2 3 -24 -5 -49 -16z"/>
</g>
</svg>
